<svg xmlns="http://www.w3.org/2000/svg" xmlns:xlink="http://www.w3.org/1999/xlink" width="500" zoomAndPan="magnify" viewBox="0 0 375 374.999991" height="500" preserveAspectRatio="xMidYMid meet" version="1.0"><defs><g/><clipPath id="53c64c45e2"><rect x="0" width="344" y="0" height="103"/></clipPath></defs><g transform="matrix(1, 0, 0, 1, 16, 135)"><g clip-path="url(#53c64c45e2)"><g fill="#2f5597" fill-opacity="1"><g transform="translate(1.415774, 83.314685)"><g><path d="M 53.402344 -0.726562 L 44.410156 -0.726562 L 44.410156 -33.058594 C 44.410156 -37.78125 42.898438 -41.777344 39.871094 -45.046875 C 36.84375 -48.316406 32.96875 -49.953125 28.246094 -49.953125 C 23.523438 -49.953125 19.648438 -48.332031 16.621094 -45.09375 C 13.59375 -41.855469 12.078125 -37.84375 12.078125 -33.058594 L 12.078125 -0.726562 L 2.726562 -0.726562 L 2.726562 -57.582031 L 12.078125 -57.582031 L 12.078125 -51.679688 C 15.105469 -54.039062 17.742188 -55.675781 19.980469 -56.582031 C 22.707031 -57.792969 25.734375 -58.398438 29.0625 -58.398438 C 33.300781 -58.398438 37.207031 -57.382812 40.777344 -55.355469 C 44.351562 -53.328125 47.226562 -50.617188 49.40625 -47.226562 C 51.890625 -50.558594 55.054688 -53.253906 58.898438 -55.3125 C 62.742188 -57.371094 66.664062 -58.398438 70.660156 -58.398438 C 77.5 -58.398438 83.285156 -55.960938 88.007812 -51.085938 C 92.730469 -46.214844 95.089844 -40.355469 95.089844 -33.511719 L 95.089844 -0.726562 L 86.007812 -0.726562 L 86.007812 -33.058594 C 86.007812 -37.78125 84.496094 -41.777344 81.46875 -45.046875 C 78.441406 -48.316406 74.59375 -49.953125 69.933594 -49.953125 C 65.210938 -49.953125 61.273438 -48.347656 58.125 -45.140625 C 54.976562 -41.929688 53.402344 -37.992188 53.402344 -33.332031 Z M 53.402344 -0.726562 "/></g></g></g><g fill="#2f5597" fill-opacity="1"><g transform="translate(99.685483, 83.314685)"><g><path d="M 53.222656 -33.511719 C 51.527344 -44.472656 44.683594 -49.953125 32.695312 -49.953125 C 26.703125 -49.953125 21.539062 -47.925781 17.210938 -43.867188 C 12.882812 -39.808594 10.746094 -34.875 10.808594 -29.0625 C 10.867188 -23.371094 12.910156 -18.527344 16.9375 -14.53125 C 20.964844 -10.535156 25.824219 -8.539062 31.515625 -8.539062 C 36.359375 -8.539062 40.960938 -9.445312 45.320312 -11.261719 C 50.40625 -13.441406 53.644531 -16.378906 55.039062 -20.070312 L 61.125 -14.167969 C 58.640625 -9.507812 54.675781 -5.933594 49.226562 -3.453125 C 44.261719 -1.089844 38.75 0.0898438 32.695312 0.0898438 C 24.21875 0.0898438 16.96875 -2.710938 10.945312 -8.308594 C 4.917969 -13.910156 1.90625 -20.828125 1.90625 -29.0625 C 1.90625 -37.238281 4.933594 -44.167969 10.988281 -49.863281 C 17.042969 -55.554688 24.28125 -58.398438 32.695312 -58.398438 C 41.777344 -58.339844 48.894531 -56.28125 54.039062 -52.222656 C 60.15625 -47.441406 63.210938 -40.023438 63.210938 -29.972656 C 63.210938 -28.761719 63.183594 -27.488281 63.121094 -26.15625 L 19.527344 -26.15625 L 19.527344 -33.421875 L 53.132812 -33.421875 Z M 53.222656 -33.511719 "/></g></g></g><g fill="#2f5597" fill-opacity="1"><g transform="translate(165.168341, 83.314685)"><g><path d="M 2.726562 -72.566406 L 12.078125 -72.566406 L 12.078125 -0.726562 L 2.726562 -0.726562 Z M 2.726562 -72.566406 "/></g></g></g><g fill="#2f5597" fill-opacity="1"><g transform="translate(180.789782, 83.314685)"><g><path d="M 45.683594 -0.726562 L 45.683594 -49.40625 L 33.058594 -49.40625 C 27.246094 -49.40625 22.3125 -47.46875 18.253906 -43.59375 C 14.199219 -39.71875 12.171875 -34.90625 12.171875 -29.152344 C 12.171875 -23.402344 14.167969 -18.601562 18.164062 -14.757812 C 22.160156 -10.914062 27.035156 -8.992188 32.785156 -8.992188 C 36.238281 -8.992188 39.417969 -9.808594 42.324219 -11.445312 L 42.324219 -2.269531 C 38.507812 -1 35.179688 -0.363281 32.332031 -0.363281 C 24.160156 -0.363281 17.179688 -3.132812 11.398438 -8.671875 C 5.617188 -14.214844 2.726562 -21.039062 2.726562 -29.152344 C 2.726562 -33.753906 3.785156 -38.144531 5.902344 -42.324219 C 8.445312 -47.167969 12.019531 -50.921875 16.621094 -53.585938 C 21.222656 -56.25 26.308594 -57.582031 31.878906 -57.582031 L 54.492188 -57.582031 L 54.492188 -0.726562 Z M 45.683594 -0.726562 "/></g></g></g><g fill="#2f5597" fill-opacity="1"><g transform="translate(239.188507, 83.314685)"><g/></g><g transform="translate(267.525063, 83.314685)"><g><path d="M 45.683594 -0.726562 L 45.683594 -49.40625 L 33.058594 -49.40625 C 27.246094 -49.40625 22.3125 -47.46875 18.253906 -43.59375 C 14.199219 -39.71875 12.171875 -34.90625 12.171875 -29.152344 C 12.171875 -23.402344 14.167969 -18.601562 18.164062 -14.757812 C 22.160156 -10.914062 27.035156 -8.992188 32.785156 -8.992188 C 36.238281 -8.992188 39.417969 -9.808594 42.324219 -11.445312 L 42.324219 -2.269531 C 38.507812 -1 35.179688 -0.363281 32.332031 -0.363281 C 24.160156 -0.363281 17.179688 -3.132812 11.398438 -8.671875 C 5.617188 -14.214844 2.726562 -21.039062 2.726562 -29.152344 C 2.726562 -33.753906 3.785156 -38.144531 5.902344 -42.324219 C 8.445312 -47.167969 12.019531 -50.921875 16.621094 -53.585938 C 21.222656 -56.25 26.308594 -57.582031 31.878906 -57.582031 L 54.492188 -57.582031 L 54.492188 -0.726562 Z M 45.683594 -0.726562 "/></g></g></g><g fill="#2f5597" fill-opacity="1"><g transform="translate(325.923788, 83.314685)"><g><path d="M 12.078125 -0.726562 L 2.726562 -0.726562 L 2.726562 -58.398438 L 12.078125 -58.398438 Z M 2.996094 -67.84375 C 2.996094 -69.054688 3.4375 -70.101562 4.3125 -70.976562 C 5.191406 -71.855469 6.238281 -72.292969 7.449219 -72.292969 C 8.71875 -72.292969 9.792969 -71.855469 10.671875 -70.976562 C 11.550781 -70.101562 11.988281 -69.054688 11.988281 -67.84375 C 11.988281 -66.574219 11.550781 -65.496094 10.671875 -64.621094 C 9.792969 -63.742188 8.71875 -63.304688 7.449219 -63.304688 C 6.238281 -63.304688 5.191406 -63.742188 4.3125 -64.621094 C 3.4375 -65.496094 2.996094 -66.574219 2.996094 -67.84375 Z M 2.996094 -67.84375 "/></g></g></g></g></g></svg>